<?xml version="1.0" encoding="UTF-8" standalone="no"?>
<!-- Created with Inkscape (http://www.inkscape.org/) -->

<svg
   xmlns="http://www.w3.org/2000/svg"
   viewBox="0 0 11.160201 11.16"
   version="1.1">
  <g
     transform="translate(-52.628232,-170.63285)">
    <g
       transform="matrix(0.26458333,0,0,0.34875,51.569899,167.84285)">
      <path
         d="M 38,12 H 22 L 18,8 H 8 C 5.8,8 4,9.8 4,12 v 24 c 0,2.2 1.8,4 4,4 h 31 c 1.7,0 3,-1.3 3,-3 V 16 c 0,-2.2 -1.8,-4 -4,-4 z"
         style="fill:#ffa000" />
      <path
         d="M 42.2,18 H 15.3 c -1.9,0 -3.6,1.4 -3.9,3.3 L 8,40 h 31.7 c 1.9,0 3.6,-1.4 3.9,-3.3 l 2.5,-14 C 46.6,20.3 44.7,18 42.2,18 Z"
         style="fill:#ffca28" />
    </g>
  </g>
</svg>
