<?xml version="1.0" encoding="UTF-8" standalone="no"?>
<!-- Created with Inkscape (http://www.inkscape.org/) -->

<svg
   xmlns="http://www.w3.org/2000/svg"
   viewBox="0 0 10.583333 10.583"
   version="1.1">
  <g
     transform="translate(-145.14286,-127.66683)">
    <g
       transform="translate(33.905014,48.560331)">
      <g
         transform="matrix(0.26458333,0,0,0.33071875,110.17951,76.460752)"
         >
        <path
           style="fill:#ffa000"
           d="M 40,12 H 22 L 18,8 H 8 C 5.8,8 4,9.8 4,12 v 8 h 40 v -4 c 0,-2.2 -1.8,-4 -4,-4 z"
            />
        <path
           style="fill:#ffca28"
           d="M 40,12 H 8 c -2.2,0 -4,1.8 -4,4 v 20 c 0,2.2 1.8,4 4,4 h 32 c 2.2,0 4,-1.8 4,-4 V 16 c 0,-2.2 -1.8,-4 -4,-4 z"
           />
      </g>
    </g>
  </g>
</svg>
